<svg width="105" height="105" viewBox="0 0 105 105" fill="none" xmlns="http://www.w3.org/2000/svg">
<g filter="url(#filter0_d_173_69)">
<rect x="17" y="14" width="65" height="65" rx="8" fill="#D6F4F0"/>
</g>
<path d="M35.3042 48.1234H31.5215C31.2339 48.1234 31 48.3611 31 48.6487V59.6095C31 59.8971 31.2339 60.131 31.5215 60.131H35.3042C35.5918 60.131 35.8257 59.8971 35.8257 59.6095V48.6487C35.8276 48.3611 35.5937 48.1234 35.3042 48.1234Z" fill="#2A9D8F"/>
<path d="M66.4766 48.1234H62.6939C62.4063 48.1234 62.1743 48.3611 62.1743 48.6487V59.6095C62.1743 59.8971 62.4063 60.131 62.6939 60.131H66.4766C66.768 60.131 67 59.8971 67 59.6095V48.6487C67 48.3611 66.768 48.1234 66.4766 48.1234Z" fill="#2A9D8F"/>
<path d="M42.325 41.8578H38.5423C38.2547 41.8578 38.0189 42.0918 38.0189 42.3813V59.6057C38.0189 59.8933 38.2547 60.1272 38.5423 60.1272H42.325C42.6145 60.1272 42.8484 59.8933 42.8484 59.6057V42.3813C42.8484 42.0898 42.6145 41.8578 42.325 41.8578Z" fill="#2A9D8F"/>
<path d="M58.361 41.8578H54.5783C54.2907 41.8578 54.0587 42.0918 54.0587 42.3813V59.6057C54.0587 59.8933 54.2907 60.1272 54.5783 60.1272H58.361C58.6525 60.1272 58.8844 59.8933 58.8844 59.6057V42.3813C58.8864 42.0898 58.6544 41.8578 58.361 41.8578Z" fill="#2A9D8F"/>
<path d="M50.1915 45.6732H46.4069C46.1193 45.6732 45.8854 45.909 45.8854 46.1946V59.6038C45.8854 59.8914 46.1193 60.1253 46.4069 60.1253H50.1915C50.4829 60.1253 50.7149 59.8914 50.7149 59.6038V46.1946C50.7149 45.909 50.4829 45.6732 50.1915 45.6732Z" fill="#2A9D8F"/>
<path d="M33.4138 41.3191C34.5277 41.3191 35.4288 40.418 35.4288 39.3041C35.4288 39.1104 35.3924 38.9283 35.3406 38.7519L39.5796 35.7016C39.8404 35.8243 40.128 35.8971 40.4347 35.8971C41.0272 35.8971 41.5525 35.6383 41.9225 35.2319L45.9238 37.5479C45.9008 37.6668 45.8854 37.7895 45.8854 37.9122C45.8854 39.0242 46.7885 39.9272 47.9005 39.9272C48.9722 39.9272 49.8407 39.0874 49.9021 38.031L55.2972 36.4531C55.6634 36.9555 56.252 37.2871 56.923 37.2871C57.3678 37.2871 57.7723 37.1395 58.1059 36.8941L62.6402 39.9694C62.6019 40.1285 62.5693 40.2953 62.5693 40.4678C62.5693 41.5818 63.4723 42.4848 64.5843 42.4848C65.6963 42.4848 66.6031 41.5818 66.6031 40.4678C66.6031 39.3539 65.6963 38.4528 64.5843 38.4528C64.1395 38.4528 63.7349 38.6004 63.4013 38.8439L58.8709 35.7744C58.9093 35.6134 58.938 35.4485 58.938 35.276C58.938 34.162 58.0388 33.2609 56.923 33.2609C55.8513 33.2609 54.9827 34.1007 54.9195 35.1571L49.5263 36.7331C49.1601 36.2288 48.5696 35.8991 47.9005 35.8991C47.4039 35.8991 46.9572 36.0831 46.6063 36.3803L42.4421 33.9665C42.4421 33.9377 42.4498 33.9128 42.4498 33.886C42.4498 32.772 41.5487 31.869 40.4347 31.869C39.3208 31.869 38.4197 32.7701 38.4197 33.884C38.4197 34.187 38.4926 34.4707 38.6114 34.7295L34.5565 37.6476C34.2325 37.4213 33.8394 37.2891 33.4138 37.2891C32.2999 37.2891 31.3988 38.1921 31.3988 39.3041C31.3988 40.418 32.2999 41.3191 33.4138 41.3191Z" fill="#2A9D8F"/>
<defs>
<filter id="filter0_d_173_69" x="0" y="0" width="105" height="105" filterUnits="userSpaceOnUse" color-interpolation-filters="sRGB">
<feFlood flood-opacity="0" result="BackgroundImageFix"/>
<feColorMatrix in="SourceAlpha" type="matrix" values="0 0 0 0 0 0 0 0 0 0 0 0 0 0 0 0 0 0 127 0" result="hardAlpha"/>
<feOffset dx="3" dy="6"/>
<feGaussianBlur stdDeviation="10"/>
<feColorMatrix type="matrix" values="0 0 0 0 0.164706 0 0 0 0 0.615686 0 0 0 0 0.560784 0 0 0 0.2 0"/>
<feBlend mode="normal" in2="BackgroundImageFix" result="effect1_dropShadow_173_69"/>
<feBlend mode="normal" in="SourceGraphic" in2="effect1_dropShadow_173_69" result="shape"/>
</filter>
</defs>
</svg>
