<svg width="108" height="108" viewBox="0 0 108 108" fill="none" xmlns="http://www.w3.org/2000/svg">
<path d="M45.5625 18.5625H48.9375V21.9375H45.5625V18.5625Z" fill="#E9C46A"/>
<path d="M89.4375 59.0625H92.8125V62.4375H89.4375V59.0625Z" fill="#E9C46A"/>
<path d="M59.0625 86.0625H62.4375V89.4375H59.0625V86.0625Z" fill="#E9C46A"/>
<path d="M45.5625 91.125H48.9375V94.5H45.5625V91.125Z" fill="#E9C46A"/>
<path d="M18.5625 52.3125H21.9375V55.6875H18.5625V52.3125Z" fill="#E9C46A"/>
<path d="M59.0625 18.5625H62.4375V21.9375H59.0625V18.5625Z" fill="#E9C46A"/>
<path d="M86.0625 45.5625H89.4375V48.9375H86.0625V45.5625Z" fill="#E9C46A"/>
<path d="M77.625 28.6875H81V32.0625H77.625V28.6875Z" fill="#E9C46A"/>
<path d="M27 28.6875H30.375V32.0625H27V28.6875Z" fill="#E9C46A"/>
<path d="M77.625 75.9375H81V79.3125H77.625V75.9375Z" fill="#E9C46A"/>
<path d="M27 75.9375H30.375V79.3125H27V75.9375Z" fill="#E9C46A"/>
<path d="M53.8006 52.3125C52.6204 52.3506 51.4908 52.8009 50.608 53.5851C49.7253 54.3694 49.1451 55.438 48.9682 56.6055C48.7913 57.773 49.029 58.9656 49.6399 59.9761C50.2507 60.9866 51.1963 61.7512 52.3122 62.1372V65.8125H55.6872V62.1253C56.8305 61.7249 57.7918 60.9269 58.3958 59.8768C58.9998 58.8268 59.2063 57.5946 58.9776 56.405C58.7489 55.2154 58.1002 54.1476 57.1499 53.3963C56.1996 52.6451 55.0109 52.2604 53.8006 52.3125ZM55.6872 57.3092C55.696 57.5307 55.6611 57.7518 55.5845 57.9598C55.5078 58.1678 55.3909 58.3587 55.2405 58.5215C55.09 58.6843 54.909 58.8159 54.7077 58.9088C54.5064 59.0016 54.2887 59.0538 54.0672 59.0625C53.8454 59.0712 53.624 59.036 53.4158 58.959C53.2076 58.882 53.0167 58.7646 52.8539 58.6137C52.6086 58.3872 52.436 58.0931 52.3579 57.7685C52.2798 57.4439 52.2997 57.1035 52.4151 56.7902C52.5306 56.477 52.7363 56.205 53.0064 56.0087C53.2764 55.8124 53.5986 55.7007 53.9322 55.6875H53.9997C54.4358 55.6872 54.8551 55.8557 55.1697 56.1577C55.4843 56.4597 55.6698 56.8718 55.6872 57.3075V57.3092Z" fill="#E9C46A"/>
<path d="M62.4375 47.5605V45.5625C62.4375 43.3247 61.5485 41.1786 59.9662 39.5963C58.3839 38.0139 56.2378 37.125 54 37.125C51.7622 37.125 49.6161 38.0139 48.0338 39.5963C46.4514 41.1786 45.5625 43.3247 45.5625 45.5625V47.5605C44.5788 47.9083 43.7267 48.5515 43.1225 49.4021C42.5184 50.2527 42.1918 51.2692 42.1875 52.3125V65.8125C42.1875 67.1552 42.7209 68.4428 43.6703 69.3922C44.6197 70.3416 45.9073 70.875 47.25 70.875H60.75C62.0927 70.875 63.3803 70.3416 64.3297 69.3922C65.2791 68.4428 65.8125 67.1552 65.8125 65.8125V52.3125C65.8082 51.2692 65.4816 50.2527 64.8775 49.4021C64.2733 48.5515 63.4212 47.9083 62.4375 47.5605ZM48.9375 45.5625C48.9375 44.2198 49.4709 42.9322 50.4203 41.9828C51.3697 41.0334 52.6573 40.5 54 40.5C55.3427 40.5 56.6303 41.0334 57.5797 41.9828C58.5291 42.9322 59.0625 44.2198 59.0625 45.5625V47.25H48.9375V45.5625ZM62.4375 65.8125C62.4375 66.26 62.2597 66.6893 61.9432 67.0057C61.6268 67.3222 61.1975 67.5 60.75 67.5H47.25C46.8024 67.5 46.3732 67.3222 46.0568 67.0057C45.7403 66.6893 45.5625 66.26 45.5625 65.8125V52.3125C45.5625 51.8649 45.7403 51.4357 46.0568 51.1193C46.3732 50.8028 46.8024 50.625 47.25 50.625H60.75C61.1975 50.625 61.6268 50.8028 61.9432 51.1193C62.2597 51.4357 62.4375 51.8649 62.4375 52.3125V65.8125Z" fill="#E9C46A"/>
<path d="M99.5625 69.1875C98.8107 69.1904 98.0694 69.3635 97.3941 69.6937L93.5128 65.8125H77.625V62.4375H86.0625V59.0625H77.625V55.6875H86.4608L96.0576 50.8882C96.8987 51.6939 97.9923 52.1842 99.1533 52.2762C100.314 52.3682 101.471 52.0562 102.429 51.3931C103.386 50.73 104.085 49.7565 104.408 48.6372C104.73 47.518 104.655 46.3218 104.197 45.2512C103.739 44.1805 102.924 43.301 101.892 42.7617C100.86 42.2223 99.6731 42.0561 98.5324 42.2912C97.3917 42.5264 96.3673 43.1484 95.6325 44.052C94.8977 44.9556 94.4976 46.0853 94.5 47.25C94.5079 47.4553 94.5288 47.6599 94.5624 47.8626L85.6643 52.3125H77.625V48.9375H82.6875V45.5625H77.625V42.1875H85.0736L90.6424 36.6188C91.3182 36.9493 92.0602 37.1223 92.8125 37.125C93.8138 37.125 94.7926 36.8281 95.6251 36.2718C96.4576 35.7155 97.1065 34.9249 97.4896 33.9998C97.8728 33.0748 97.9731 32.0569 97.7777 31.0749C97.5824 30.0928 97.1002 29.1908 96.3922 28.4828C95.6842 27.7748 94.7822 27.2926 93.8001 27.0973C92.8181 26.9019 91.8002 27.0022 90.8752 27.3854C89.9501 27.7685 89.1595 28.4174 88.6032 29.2499C88.0469 30.0825 87.75 31.0612 87.75 32.0625C87.7529 32.8143 87.926 33.5556 88.2563 34.2309L83.6764 38.8125H77.625C77.6223 36.5756 76.7325 34.431 75.1508 32.8492C73.569 31.2675 71.4244 30.3777 69.1875 30.375V26.0111L78.8316 16.3688C79.5069 16.699 80.2482 16.8721 81 16.875C82.0013 16.875 82.9801 16.5781 83.8126 16.0218C84.6451 15.4655 85.294 14.6749 85.6771 13.7498C86.0603 12.8248 86.1606 11.8069 85.9652 10.8249C85.7699 9.84283 85.2877 8.94078 84.5797 8.23277C83.8717 7.52477 82.9697 7.04261 81.9876 6.84728C81.0056 6.65194 79.9877 6.75219 79.0627 7.13536C78.1376 7.51853 77.347 8.1674 76.7907 8.99993C76.2344 9.83245 75.9375 10.8112 75.9375 11.8125C75.9404 12.5643 76.1135 13.3056 76.4438 13.9809L65.8125 24.6122V30.375H62.4375V25.3125H59.0625V30.375H55.6875V18.252C56.8134 17.8539 57.7624 17.0706 58.3666 16.0406C58.9709 15.0105 59.1915 13.8 58.9896 12.623C58.7877 11.4459 58.1761 10.3782 57.2631 9.60845C56.35 8.83871 55.1942 8.41653 54 8.41653C52.8058 8.41653 51.65 8.83871 50.737 9.60845C49.8239 10.3782 49.2124 11.4459 49.0104 12.623C48.8085 13.8 49.0291 15.0105 49.6334 16.0406C50.2376 17.0706 51.1866 17.8539 52.3125 18.252V30.375H48.9375V25.3125H45.5625V30.375H42.1875V17.8639L34.9313 10.6076C35.2618 9.93178 35.4348 9.18983 35.4375 8.4375C35.4375 7.43623 35.1406 6.45745 34.5843 5.62493C34.028 4.7924 33.2374 4.14353 32.3123 3.76036C31.3873 3.37719 30.3694 3.27694 29.3874 3.47228C28.4053 3.66761 27.5033 4.14977 26.7953 4.85777C26.0873 5.56578 25.6051 6.46783 25.4098 7.44986C25.2144 8.43189 25.3147 9.44979 25.6979 10.3748C26.081 11.2999 26.7299 12.0905 27.5624 12.6468C28.395 13.2031 29.3737 13.5 30.375 13.5C31.1268 13.4971 31.8681 13.324 32.5434 12.9938L38.8125 19.2611V30.375C36.5756 30.3777 34.431 31.2675 32.8492 32.8492C31.2675 34.431 30.3777 36.5756 30.375 38.8125H24.3236L19.7438 34.2309C20.074 33.5556 20.2471 32.8143 20.25 32.0625C20.25 31.0612 19.9531 30.0825 19.3968 29.2499C18.8405 28.4174 18.0499 27.7685 17.1248 27.3854C16.1998 27.0022 15.1819 26.9019 14.1999 27.0973C13.2178 27.2926 12.3158 27.7748 11.6078 28.4828C10.8998 29.1908 10.4176 30.0928 10.2223 31.0749C10.0269 32.0569 10.1272 33.0748 10.5104 33.9998C10.8935 34.9249 11.5424 35.7155 12.3749 36.2718C13.2075 36.8281 14.1862 37.125 15.1875 37.125C15.9393 37.1221 16.6806 36.949 17.3559 36.6188L22.9247 42.1875H30.375V45.5625H19.6391L10.8 52.9268C10.0756 52.5293 9.26375 52.3182 8.4375 52.3125C7.43623 52.3125 6.45745 52.6094 5.62493 53.1657C4.7924 53.722 4.14353 54.5126 3.76036 55.4377C3.37719 56.3627 3.27694 57.3806 3.47228 58.3626C3.66761 59.3447 4.14977 60.2467 4.85777 60.9547C5.56578 61.6627 6.46783 62.1449 7.44986 62.3402C8.43189 62.5356 9.44979 62.4353 10.3748 62.0521C11.2999 61.669 12.0905 61.0201 12.6468 60.1876C13.2031 59.355 13.5 58.3763 13.5 57.375C13.5011 56.6977 13.3651 56.0273 13.1001 55.404L20.8609 48.9375H30.375V52.3125H25.3125V55.6875H30.375V59.0625H15.1875V62.4375H30.375V65.8125H21.0347L14.2341 76.0117C13.9915 75.969 13.7462 75.9442 13.5 75.9375C12.326 75.9267 11.1841 76.3205 10.2664 77.0527C9.34863 77.785 8.71102 78.8109 8.46078 79.9579C8.21054 81.105 8.36293 82.3032 8.89234 83.3511C9.42174 84.399 10.2959 85.2327 11.3677 85.7118C12.4395 86.191 13.6436 86.2865 14.7775 85.9822C15.9114 85.6779 16.906 84.9924 17.5939 84.0409C18.2818 83.0895 18.6211 81.9303 18.5547 80.7581C18.4883 79.586 18.0203 78.4724 17.2294 77.6047L22.8403 69.1875H30.375C30.3777 71.4244 31.2675 73.569 32.8492 75.1507C34.431 76.7325 36.5756 77.6223 38.8125 77.625V88.7389L32.5434 95.0062C31.8681 94.676 31.1268 94.5029 30.375 94.5C29.3737 94.5 28.395 94.7969 27.5624 95.3532C26.7299 95.9095 26.081 96.7001 25.6979 97.6252C25.3147 98.5502 25.2144 99.5681 25.4098 100.55C25.6051 101.532 26.0873 102.434 26.7953 103.142C27.5033 103.85 28.4053 104.332 29.3874 104.528C30.3694 104.723 31.3873 104.623 32.3123 104.24C33.2374 103.856 34.028 103.208 34.5843 102.375C35.1406 101.543 35.4375 100.564 35.4375 99.5625C35.4346 98.8107 35.2615 98.0694 34.9313 97.3941L42.1875 90.1378V77.625H45.5625V87.75H48.9375V77.625H52.3125V92.0599L62.5624 98.4724C62.2869 99.6546 62.4391 100.896 62.9919 101.977C63.5446 103.058 64.4623 103.908 65.5822 104.377C66.702 104.845 67.9517 104.902 69.1095 104.537C70.2673 104.172 71.2584 103.409 71.907 102.383C72.5557 101.357 72.82 100.134 72.6531 98.9316C72.4861 97.7292 71.8988 96.6247 70.9951 95.8142C70.0914 95.0036 68.9299 94.5392 67.7165 94.5035C66.503 94.4677 65.3162 94.8628 64.3663 95.6188L55.6875 90.1901V77.625H59.0625V82.6875H62.4375V77.625H65.8125V91.125H77.9355C78.3336 92.2509 79.1169 93.1999 80.1469 93.8041C81.177 94.4084 82.3875 94.629 83.5646 94.4271C84.7416 94.2251 85.8093 93.6136 86.5791 92.7005C87.3488 91.7875 87.771 90.6317 87.771 89.4375C87.771 88.2433 87.3488 87.0875 86.5791 86.1744C85.8093 85.2614 84.7416 84.6498 83.5646 84.4479C82.3875 84.246 81.177 84.4666 80.1469 85.0709C79.1169 85.6751 78.3336 86.6241 77.9355 87.75H69.1875V77.625C71.4244 77.6223 73.569 76.7325 75.1508 75.1507C76.7325 73.569 77.6223 71.4244 77.625 69.1875H92.1139L95.0063 72.0816C94.676 72.7569 94.5029 73.4982 94.5 74.25C94.5 75.2513 94.7969 76.23 95.3532 77.0626C95.9095 77.8951 96.7001 78.544 97.6252 78.9271C98.5502 79.3103 99.5681 79.4106 100.55 79.2152C101.532 79.0199 102.434 78.5377 103.142 77.8297C103.85 77.1217 104.332 76.2197 104.528 75.2376C104.723 74.2556 104.623 73.2377 104.24 72.3127C103.856 71.3876 103.208 70.597 102.375 70.0407C101.543 69.4844 100.564 69.1875 99.5625 69.1875ZM99.5625 45.5625C99.8963 45.5625 100.223 45.6615 100.5 45.8469C100.778 46.0323 100.994 46.2959 101.122 46.6042C101.249 46.9126 101.283 47.2519 101.218 47.5792C101.152 47.9066 100.992 48.2072 100.756 48.4432C100.52 48.6792 100.219 48.84 99.8917 48.9051C99.5644 48.9702 99.2251 48.9368 98.9167 48.809C98.6084 48.6813 98.3448 48.465 98.1594 48.1875C97.974 47.91 97.875 47.5838 97.875 47.25C97.875 46.8024 98.0528 46.3732 98.3693 46.0568C98.6857 45.7403 99.115 45.5625 99.5625 45.5625ZM92.8125 30.375C93.1463 30.375 93.4725 30.474 93.75 30.6594C94.0275 30.8448 94.2438 31.1084 94.3716 31.4167C94.4993 31.7251 94.5327 32.0644 94.4676 32.3917C94.4025 32.7191 94.2418 33.0197 94.0058 33.2557C93.7698 33.4917 93.4691 33.6525 93.1417 33.7176C92.8144 33.7827 92.4751 33.7493 92.1667 33.6215C91.8584 33.4938 91.5948 33.2775 91.4094 33C91.224 32.7225 91.125 32.3963 91.125 32.0625C91.125 31.6149 91.3028 31.1857 91.6193 30.8693C91.9357 30.5528 92.365 30.375 92.8125 30.375ZM81 10.125C81.3338 10.125 81.66 10.224 81.9375 10.4094C82.215 10.5948 82.4313 10.8584 82.5591 11.1667C82.6868 11.4751 82.7202 11.8144 82.6551 12.1417C82.59 12.4691 82.4293 12.7697 82.1933 13.0057C81.9572 13.2417 81.6566 13.4025 81.3292 13.4676C81.0019 13.5327 80.6626 13.4993 80.3542 13.3715C80.0459 13.2438 79.7823 13.0275 79.5969 12.75C79.4115 12.4725 79.3125 12.1463 79.3125 11.8125C79.3125 11.3649 79.4903 10.9357 79.8068 10.6193C80.1232 10.3028 80.5525 10.125 81 10.125ZM54 11.8125C54.3338 11.8125 54.66 11.9115 54.9375 12.0969C55.215 12.2823 55.4313 12.5459 55.5591 12.8542C55.6868 13.1626 55.7202 13.5019 55.6551 13.8292C55.59 14.1566 55.4293 14.4572 55.1933 14.6932C54.9572 14.9292 54.6566 15.09 54.3292 15.1551C54.0019 15.2202 53.6626 15.1868 53.3542 15.059C53.0459 14.9313 52.7823 14.715 52.5969 14.4375C52.4115 14.16 52.3125 13.8338 52.3125 13.5C52.3125 13.0524 52.4903 12.6232 52.8068 12.3068C53.1232 11.9903 53.5525 11.8125 54 11.8125ZM28.6875 8.4375C28.6875 8.10375 28.7865 7.77749 28.9719 7.49998C29.1573 7.22247 29.4209 7.00618 29.7292 6.87846C30.0376 6.75073 30.3769 6.71731 30.7042 6.78243C31.0316 6.84754 31.3322 7.00826 31.5682 7.24426C31.8043 7.48026 31.965 7.78094 32.0301 8.10829C32.0952 8.43563 32.0618 8.77493 31.9341 9.08328C31.8063 9.39163 31.59 9.65518 31.3125 9.84061C31.035 10.026 30.7088 10.125 30.375 10.125C29.9275 10.125 29.4982 9.94721 29.1818 9.63074C28.8653 9.31428 28.6875 8.88506 28.6875 8.4375ZM13.5 32.0625C13.5 31.7287 13.599 31.4025 13.7844 31.125C13.9698 30.8475 14.2334 30.6312 14.5417 30.5035C14.8501 30.3757 15.1894 30.3423 15.5167 30.4074C15.8441 30.4725 16.1447 30.6333 16.3807 30.8693C16.6167 31.1053 16.7775 31.4059 16.8426 31.7333C16.9077 32.0606 16.8743 32.3999 16.7466 32.7083C16.6188 33.0166 16.4025 33.2802 16.125 33.4656C15.8475 33.651 15.5213 33.75 15.1875 33.75C14.74 33.75 14.3107 33.5722 13.9943 33.2557C13.6778 32.9393 13.5 32.5101 13.5 32.0625ZM8.4375 59.0625C8.10375 59.0625 7.77749 58.9635 7.49998 58.7781C7.22247 58.5927 7.00618 58.3291 6.87846 58.0208C6.75073 57.7124 6.71731 57.3731 6.78243 57.0458C6.84754 56.7184 7.00826 56.4178 7.24426 56.1818C7.48026 55.9458 7.78094 55.785 8.10829 55.7199C8.43563 55.6548 8.77493 55.6882 9.08328 55.816C9.39163 55.9437 9.65518 56.16 9.84061 56.4375C10.026 56.715 10.125 57.0412 10.125 57.375C10.125 57.8225 9.94721 58.2518 9.63075 58.5682C9.31428 58.8847 8.88506 59.0625 8.4375 59.0625ZM13.5 82.6875C13.1662 82.6875 12.84 82.5885 12.5625 82.4031C12.285 82.2177 12.0687 81.9541 11.941 81.6458C11.8132 81.3374 11.7798 80.9981 11.8449 80.6708C11.91 80.3434 12.0708 80.0428 12.3068 79.8067C12.5428 79.5707 12.8434 79.41 13.1708 79.3449C13.4981 79.2798 13.8374 79.3132 14.1458 79.4409C14.4541 79.5687 14.7177 79.785 14.9031 80.0625C15.0885 80.34 15.1875 80.6662 15.1875 81C15.1875 81.4475 15.0097 81.8768 14.6932 82.1932C14.3768 82.5097 13.9476 82.6875 13.5 82.6875ZM30.375 101.25C30.0412 101.25 29.715 101.151 29.4375 100.966C29.16 100.78 28.9437 100.517 28.816 100.208C28.6882 99.8999 28.6548 99.5606 28.7199 99.2333C28.785 98.9059 28.9458 98.6052 29.1818 98.3692C29.4178 98.1332 29.7184 97.9725 30.0458 97.9074C30.3731 97.8423 30.7124 97.8757 31.0208 98.0034C31.3291 98.1312 31.5927 98.3475 31.7781 98.625C31.9635 98.9025 32.0625 99.2287 32.0625 99.5625C32.0625 100.01 31.8847 100.439 31.5682 100.756C31.2518 101.072 30.8226 101.25 30.375 101.25ZM67.5 97.875C67.8338 97.875 68.16 97.974 68.4375 98.1594C68.715 98.3448 68.9313 98.6084 69.0591 98.9167C69.1868 99.2251 69.2202 99.5644 69.1551 99.8917C69.09 100.219 68.9293 100.52 68.6932 100.756C68.4572 100.992 68.1566 101.152 67.8292 101.218C67.5019 101.283 67.1626 101.249 66.8542 101.122C66.5459 100.994 66.2823 100.778 66.0969 100.5C65.9115 100.223 65.8125 99.8962 65.8125 99.5625C65.8125 99.1149 65.9903 98.6857 66.3068 98.3692C66.6232 98.0528 67.0525 97.875 67.5 97.875ZM82.6875 87.75C83.0213 87.75 83.3475 87.849 83.625 88.0344C83.9025 88.2198 84.1188 88.4834 84.2466 88.7917C84.3743 89.1001 84.4077 89.4394 84.3426 89.7667C84.2775 90.0941 84.1168 90.3947 83.8808 90.6307C83.6447 90.8667 83.3441 91.0275 83.0167 91.0926C82.6894 91.1577 82.3501 91.1243 82.0417 90.9965C81.7334 90.8688 81.4698 90.6525 81.2844 90.375C81.099 90.0975 81 89.7712 81 89.4375C81 88.9899 81.1778 88.5607 81.4943 88.2442C81.8107 87.9278 82.24 87.75 82.6875 87.75ZM74.25 69.1875C74.25 70.5302 73.7166 71.8178 72.7672 72.7672C71.8178 73.7166 70.5302 74.25 69.1875 74.25H38.8125C37.4698 74.25 36.1822 73.7166 35.2328 72.7672C34.2834 71.8178 33.75 70.5302 33.75 69.1875V38.8125C33.75 37.4698 34.2834 36.1822 35.2328 35.2328C36.1822 34.2834 37.4698 33.75 38.8125 33.75H69.1875C70.5302 33.75 71.8178 34.2834 72.7672 35.2328C73.7166 36.1822 74.25 37.4698 74.25 38.8125V69.1875ZM99.5625 75.9375C99.2288 75.9375 98.9025 75.8385 98.625 75.6531C98.3475 75.4677 98.1312 75.2041 98.0035 74.8958C97.8757 74.5874 97.8423 74.2481 97.9074 73.9208C97.9725 73.5934 98.1333 73.2928 98.3693 73.0567C98.6053 72.8207 98.9059 72.66 99.2333 72.5949C99.5606 72.5298 99.8999 72.5632 100.208 72.6909C100.517 72.8187 100.78 73.035 100.966 73.3125C101.151 73.59 101.25 73.9162 101.25 74.25C101.25 74.6975 101.072 75.1268 100.756 75.4432C100.439 75.7597 100.01 75.9375 99.5625 75.9375Z" fill="#E9C46A"/>
</svg>
