<svg width="108" height="108" viewBox="0 0 108 108" fill="none" xmlns="http://www.w3.org/2000/svg">
<g clip-path="url(#clip0_23_79)">
<path d="M108 45.2903H104.086L98.2518 48.36C97.5952 47.9976 96.9122 47.6906 96.1756 47.506L88.837 45.6697V44.8353C92.0836 42.5694 94.0645 38.8261 94.0645 34.8387V31.7937C94.0645 25.0267 88.7622 19.3637 82.2452 19.1664C81.9143 19.1579 81.5886 19.1698 81.2611 19.186L83.1638 14.7316L73.9395 5.50989L68.502 9.04905C66.436 7.88549 64.2509 6.97965 61.9816 6.34429L60.6386 0H47.3631L46.0201 6.34599C43.7508 6.98135 41.564 7.88719 39.4997 9.05075L34.0622 5.51159L24.8455 14.7282L26.7159 19.186C26.6445 19.1826 26.5764 19.1698 26.505 19.1681C23.1691 19.0711 20.0272 20.2883 17.6405 22.6052C15.2504 24.9204 13.9355 28.0275 13.9355 31.3548V34.8387C13.9355 38.8261 15.9147 42.5677 19.1613 44.8336V45.6697L14.3744 46.8664L5.69786 41.8064H0V77.9014L17.137 83.6129H20.4745L20.8913 82.1534L26.1443 85.3064C26.2302 88.1625 28.5208 90.4607 31.3744 90.5611C31.4748 93.4028 33.7585 95.6865 36.6002 95.7869C36.7006 98.6286 38.9843 100.912 41.826 101.013C41.9298 103.921 44.3113 106.258 47.2432 106.258C48.3319 106.258 49.3994 105.919 50.2967 105.314L51.8396 106.677C52.8067 107.528 54.0519 108 55.3447 108H55.6671C58.5658 108 60.9244 105.657 60.9609 102.767C63.8282 102.731 66.1502 100.409 66.1867 97.5416C69.0557 97.505 71.3794 95.1796 71.4126 92.3107C74.3078 92.2426 76.6452 89.8772 76.6452 86.9658C76.6452 86.7906 76.6367 86.6179 76.6188 86.4436L108 70.7542V45.2903ZM90.5806 31.7937V34.8387C90.5806 37.9305 88.9102 40.819 86.2207 42.3763L85.3497 42.8799L85.3565 48.3923L94.0594 50.5663L74.9032 60.6488V55.9563C74.9032 53.6147 73.9574 51.4705 72.4085 49.8859L78.3871 48.3923V42.8756L77.5178 42.3729C74.8301 40.819 73.1613 37.9305 73.1613 34.8387V31.3548C73.1613 28.9792 74.1003 26.7576 75.8074 25.1033C77.5127 23.4498 79.7752 22.5584 82.1406 22.6503C86.794 22.7898 90.5806 26.892 90.5806 31.7937ZM56.6265 59.2794L48.741 56.7592C45.1474 55.6075 41.2578 55.4357 37.5792 56.2506L36.5806 56.4717V55.9563C36.5806 53.5543 38.2095 51.4688 40.5383 50.8853L50.5161 48.3923V42.8756L49.6469 42.3729C46.9591 40.819 45.2903 37.9305 45.2903 34.8387V31.3548C45.2903 28.9792 46.2293 26.7576 47.9364 25.1033C49.6418 23.4498 51.9187 22.5584 54.2696 22.6503C58.923 22.7898 62.7097 26.892 62.7097 31.7937V34.8387C62.7097 37.9305 61.0392 40.819 58.3497 42.3763L57.4788 42.8799L57.4856 48.3923L67.4617 50.8853C69.7905 51.4688 71.4194 53.5543 71.4194 55.9563V62.4834L70.989 62.7097H69.9215L59.2122 59.6494C58.3684 59.4104 57.4992 59.3126 56.6265 59.2794ZM36.9711 26.0712C40.2423 19.7329 46.8264 15.6774 54 15.6774C61.1055 15.6774 67.6616 19.6784 70.9575 25.9309C70.1282 27.5937 69.6774 29.4351 69.6774 31.3548V34.8387C69.6774 38.8261 71.6567 42.5677 74.9032 44.8336V45.6697L67.9355 47.4142L60.966 45.6697V44.8353C64.2126 42.5694 66.1936 38.8261 66.1936 34.8387V31.7937C66.1936 25.0267 60.8912 19.3637 54.3742 19.1664C51.0401 19.0686 47.8964 20.2866 45.5098 22.6035C43.1214 24.9204 41.8064 28.0275 41.8064 31.3548V34.8387C41.8064 38.8261 43.7857 42.5677 47.0323 44.8336V45.6697L40.0645 47.4142L33.0951 45.6697V44.8353C36.3416 42.5694 38.3226 38.8261 38.3226 34.8387V31.7937C38.3226 29.7439 37.8293 27.7978 36.9711 26.0712ZM28.9597 15.5362L34.5249 9.97105L39.4232 13.1589L40.3605 12.584C42.7089 11.1448 45.2469 10.091 47.9032 9.45561L48.9749 9.19875L50.187 3.48387H57.8147L59.0234 9.19705L60.0951 9.45306C62.7514 10.0893 65.2894 11.1431 67.6378 12.5823L68.5751 13.1572L73.4734 9.96935L79.0318 15.5294L77.056 20.1556C75.7113 20.734 74.4643 21.5479 73.379 22.6001C73.3076 22.6698 73.2463 22.7447 73.1766 22.8161C69.0727 16.2924 61.8174 12.1935 54 12.1935C46.1264 12.1935 38.8508 16.3306 34.7571 22.9207C33.6615 21.7742 32.3585 20.8454 30.9143 20.1964L28.9597 15.5362ZM22.6452 48.3923V42.8756L21.7759 42.3729C19.0881 40.819 17.4194 37.9305 17.4194 34.8387V31.3548C17.4194 28.9792 18.3584 26.7576 20.0654 25.1033C21.7708 23.4498 24.0384 22.5584 26.3987 22.6503C31.052 22.7898 34.8387 26.892 34.8387 31.7937V34.8387C34.8387 37.9305 33.1682 40.819 30.4788 42.3763L29.6078 42.8799L29.6146 48.3923L35.5914 49.8859C34.0426 51.4705 33.0968 53.6147 33.0968 55.9563V57.2466L27.6634 58.4544L27.8046 57.961L27.871 54.7417L18.6841 49.3823L22.6452 48.3923ZM3.48387 45.2903H4.75375L17.2816 52.5974L10.9602 77.8819L3.48387 75.3889V45.2903ZM17.7017 80.129L14.2732 78.9867L20.4142 54.4253L24.3871 56.7422V57.2398L17.848 80.129H17.7017ZM29.6129 85.1439C29.6129 84.6302 29.8204 84.1266 30.1845 83.7626L33.2465 80.7006C33.6105 80.3366 34.114 80.129 34.6278 80.129C35.7046 80.129 36.5806 81.0051 36.5806 82.0819C36.5806 82.5956 36.3731 83.0992 36.0091 83.4632L32.9471 86.5252C32.583 86.8892 32.0795 87.0968 31.5658 87.0968C30.489 87.0968 29.6129 86.2207 29.6129 85.1439ZM34.8387 90.3697C34.8387 89.856 35.0462 89.3524 35.4103 88.9884L38.4723 85.9264C38.8363 85.5624 39.3398 85.3548 39.8536 85.3548C40.9304 85.3548 41.8064 86.2309 41.8064 87.3077C41.8064 87.8214 41.5989 88.325 41.2349 88.689L38.1729 91.751C37.8088 92.115 37.3053 92.3226 36.7916 92.3226C35.7148 92.3226 34.8387 91.4465 34.8387 90.3697ZM40.0645 95.5955C40.0645 95.0818 40.2721 94.5783 40.6361 94.2142L43.6981 91.1522C44.0621 90.7882 44.5657 90.5806 45.0794 90.5806C46.1562 90.5806 47.0323 91.4567 47.0323 92.5335C47.0323 93.0473 46.8247 93.5508 46.4607 93.9148L43.3987 96.9768C43.0347 97.3409 42.5311 97.5484 42.0174 97.5484C40.9406 97.5484 40.0645 96.6723 40.0645 95.5955ZM47.2432 102.774C46.1664 102.774 45.2903 101.898 45.2903 100.821C45.2903 100.308 45.4979 99.8041 45.8619 99.44L48.9239 96.378C49.2879 96.014 49.7915 95.8064 50.3052 95.8064C51.382 95.8064 52.2581 96.6825 52.2581 97.7593C52.2581 98.2731 52.0505 98.7766 51.6865 99.1406L48.6245 102.203C48.2605 102.567 47.7569 102.774 47.2432 102.774ZM55.6671 104.516H55.3447C54.9007 104.516 54.4755 104.355 54.1446 104.061L52.8415 102.912L54.1497 101.604C54.6167 101.137 54.979 100.581 55.2469 99.9852L56.8306 101.304C57.2449 101.649 57.4839 102.158 57.4839 102.699C57.4839 103.701 56.669 104.516 55.6671 104.516ZM71.2884 88.8387H70.9873C70.5501 88.8387 70.1231 88.6839 69.7888 88.4032L60.3426 80.5313L58.1107 83.2089L67.284 90.852C67.6965 91.1973 67.9355 91.7059 67.9355 92.2477C67.9355 93.2497 67.1207 94.0645 66.1187 94.0645H65.7385C65.3158 94.0645 64.9024 93.9148 64.5766 93.6426L55.1151 85.7589L52.8832 88.4364L62.0565 96.0803C62.4707 96.4231 62.7097 96.9317 62.7097 97.4735C62.7097 98.4755 61.8948 99.2903 60.8929 99.2903C60.2244 99.2903 59.5728 99.053 59.0599 98.6269L55.1721 95.3863C54.3156 93.6358 52.5558 92.4153 50.4949 92.3421C50.3945 89.5004 48.1108 87.2167 45.2691 87.1163C45.1687 84.2746 42.885 81.9909 40.0433 81.8905C39.9412 78.9825 37.5596 76.6452 34.6278 76.6452C33.1963 76.6452 31.7954 77.2252 30.7833 78.2374L27.7213 81.2994C27.5384 81.4823 27.387 81.6898 27.2331 81.8956L21.8822 78.6848L26.573 62.2674L38.3328 59.6528C41.4177 58.963 44.6703 59.1127 47.6787 60.0755L50.2448 60.8963L41.5453 65.246C39.5576 66.242 38.3226 68.2417 38.3226 70.465V70.8095C38.3226 74.0272 40.9406 76.6452 44.1582 76.6452C45.2155 76.6452 46.2557 76.3577 47.1598 75.8125L53.6462 71.9229C54.9492 71.1421 56.698 71.313 57.8232 72.3252L72.5412 85.5709C72.935 85.9281 73.1613 86.435 73.1613 86.9658C73.1613 87.9992 72.3218 88.8387 71.2884 88.8387ZM104.516 68.6006L75.1694 83.2752C75.0742 83.174 74.9747 83.0779 74.8701 82.9843L60.1546 69.7387C58.8652 68.5751 57.1981 67.9355 55.4613 67.9355C54.1914 67.9355 52.9445 68.2808 51.8524 68.9357L45.3635 72.827C44.9994 73.0465 44.5835 73.1613 44.1582 73.1613C42.8603 73.1613 41.8064 72.1075 41.8064 70.8095V70.465C41.8064 69.5677 42.3049 68.7631 43.1061 68.3625L52.8228 63.5041C54.4857 62.6714 56.4598 62.4851 58.2519 63.0006L69.1986 66.1272L71.8497 66.1936L104.516 49.0004V68.6006Z" fill="white"/>
</g>
<defs>
<clipPath id="clip0_23_79">
<rect width="108" height="108" fill="white"/>
</clipPath>
</defs>
</svg>
