<svg width="105" height="105" viewBox="0 0 105 105" fill="none" xmlns="http://www.w3.org/2000/svg">
<g filter="url(#filter0_d_173_71)">
<rect x="17" y="14" width="65" height="65" rx="8" fill="#FBF5E6"/>
</g>
<path d="M57.7951 57.6H56.2639V49.76C56.2639 49.5478 56.1833 49.3443 56.0397 49.1943C55.8961 49.0443 55.7014 48.96 55.4984 48.96C55.2953 48.96 55.1006 49.0443 54.957 49.1943C54.8134 49.3443 54.7328 49.5478 54.7328 49.76V57.6H34.8279V41.6H41.1974C41.4005 41.6 41.5952 41.5157 41.7388 41.3657C41.8824 41.2157 41.963 41.0122 41.963 40.8C41.963 40.5878 41.8824 40.3843 41.7388 40.2343C41.5952 40.0843 41.4005 40 41.1974 40H34.0623C33.8593 40 33.6645 40.0843 33.521 40.2343C33.3774 40.3843 33.2967 40.5878 33.2967 40.8V57.6H31.7656C31.5625 57.6 31.3678 57.6843 31.2242 57.8343C31.0807 57.9843 31 58.1878 31 58.4V60C31 61.0609 31.4033 62.0783 32.1212 62.8284C32.839 63.5786 33.8127 64 34.8279 64H54.7328C55.748 64 56.7216 63.5786 57.4395 62.8284C58.1574 62.0783 58.5606 61.0609 58.5606 60V58.4C58.5606 58.1878 58.48 57.9843 58.3364 57.8343C58.1928 57.6843 57.9981 57.6 57.7951 57.6ZM57.0295 60C57.0295 60.6365 56.7875 61.247 56.3568 61.6971C55.9261 62.1471 55.3419 62.4 54.7328 62.4H53.2016V61.6C53.2016 61.3878 53.121 61.1843 52.9774 61.0343C52.8338 60.8843 52.6391 60.8 52.4361 60.8C52.233 60.8 52.0383 60.8843 51.8947 61.0343C51.7511 61.1843 51.6705 61.3878 51.6705 61.6V62.4H37.8902V61.6C37.8902 61.3878 37.8095 61.1843 37.6659 61.0343C37.5224 60.8843 37.3276 60.8 37.1246 60.8C36.9215 60.8 36.7268 60.8843 36.5832 61.0343C36.4397 61.1843 36.359 61.3878 36.359 61.6V62.4H34.8279C34.2187 62.4 33.6346 62.1471 33.2038 61.6971C32.7731 61.247 32.5311 60.6365 32.5311 60V59.2H57.0295V60Z" fill="#E9C46A"/>
<path d="M57.7951 32.8C57.9139 32.8 58.0311 32.7711 58.1374 32.7155C58.2437 32.66 58.3362 32.5794 58.4075 32.48L60.7042 29.28C60.8261 29.1103 60.8784 28.8969 60.8497 28.6869C60.8209 28.4768 60.7136 28.2873 60.5511 28.16C60.3887 28.0327 60.1845 27.978 59.9835 28.008C59.7825 28.038 59.6012 28.1503 59.4793 28.32L57.1826 31.52C57.0608 31.6897 57.0085 31.9031 57.0372 32.1131C57.0659 32.3232 57.1733 32.5127 57.3357 32.64C57.4682 32.7439 57.6294 32.8 57.7951 32.8Z" fill="#E9C46A"/>
<path d="M59.4793 35.68C59.5506 35.7794 59.6431 35.86 59.7494 35.9155C59.8557 35.9711 59.9729 36 60.0918 36C60.2574 36 60.4186 35.9439 60.5511 35.84L63.6134 33.44C63.7759 33.3127 63.8832 33.1232 63.912 32.9131C63.9407 32.7031 63.8884 32.4897 63.7665 32.32C63.6447 32.1503 63.4634 32.038 63.2624 32.008C63.0613 31.978 62.8572 32.0327 62.6947 32.16L59.6325 34.56C59.47 34.6873 59.3626 34.8768 59.3339 35.0869C59.3052 35.2969 59.3575 35.5103 59.4793 35.68Z" fill="#E9C46A"/>
<path d="M66.982 37.44C66.9638 37.3339 66.9253 37.2328 66.8688 37.1426C66.8122 37.0525 66.7389 36.9753 66.6531 36.9155C66.5673 36.8557 66.4708 36.8147 66.3695 36.7948C66.2681 36.775 66.164 36.7767 66.0633 36.8L62.2354 37.6C62.1349 37.6105 62.0373 37.6416 61.9483 37.6915C61.8592 37.7414 61.7805 37.8091 61.7165 37.8908C61.5873 38.0559 61.5261 38.2678 61.5464 38.48C61.5667 38.6921 61.6668 38.8872 61.8248 39.0222C61.9827 39.1572 62.1855 39.2212 62.3885 39.2H62.5417L66.3695 38.4C66.471 38.3809 66.5678 38.3407 66.654 38.2816C66.7403 38.2226 66.8142 38.1459 66.8714 38.0563C66.9286 37.9666 66.9679 37.8658 66.9869 37.7599C67.0059 37.654 67.0042 37.5452 66.982 37.44Z" fill="#E9C46A"/>
<path d="M57.1213 37.36C57.0711 37.2686 57.0041 37.1884 56.9241 37.1241C56.8442 37.0597 56.753 37.0125 56.6556 36.985C56.5582 36.9575 56.4566 36.9503 56.3565 36.9639C56.2565 36.9774 56.16 37.0114 56.0725 37.064C55.985 37.1165 55.9083 37.1865 55.8467 37.27C55.7852 37.3535 55.7399 37.4489 55.7136 37.5507C55.6873 37.6524 55.6805 37.7586 55.6934 37.8632C55.7064 37.9677 55.739 38.0686 55.7892 38.16L59.1654 44.264L46.9162 49.064C46.9162 49.064 46.9162 49.064 46.8626 49.064H46.8014L44.8109 50.264L43.4865 51.064C43.3121 51.1693 43.1196 51.2377 42.9199 51.2651C42.7202 51.2926 42.5173 51.2786 42.3228 51.224C41.932 51.1137 41.599 50.8462 41.3964 50.48L39.8653 47.712C39.6852 47.3498 39.6443 46.9294 39.751 46.5368C39.8578 46.1442 40.104 45.8091 40.4395 45.6L43.0884 44L45.0023 47.464C45.0697 47.5861 45.1669 47.6873 45.2838 47.7576C45.4008 47.8278 45.5334 47.8645 45.6683 47.864C45.803 47.8645 45.9354 47.828 46.0522 47.758C46.169 47.688 46.2661 47.5871 46.3336 47.4653C46.4012 47.3436 46.4368 47.2055 46.437 47.0648C46.4371 46.9241 46.4017 46.7858 46.3344 46.664L44.3592 43.096L53.9672 34.816L54.281 35.384C54.3313 35.4754 54.3983 35.5555 54.4782 35.6199C54.5581 35.6842 54.6494 35.7315 54.7468 35.759C54.8442 35.7864 54.9458 35.7936 55.0459 35.7801C55.1459 35.7665 55.2424 35.7325 55.3299 35.68C55.4173 35.6274 55.4941 35.5574 55.5556 35.4739C55.6172 35.3904 55.6624 35.295 55.6887 35.1933C55.715 35.0915 55.7219 34.9853 55.7089 34.8808C55.696 34.7762 55.6634 34.6754 55.6131 34.584L54.8476 33.2C54.7915 33.0997 54.7152 33.0135 54.6239 32.9472C54.5327 32.8808 54.4288 32.8361 54.3193 32.816C54.2093 32.7943 54.0961 32.7981 53.9876 32.8271C53.8791 32.8562 53.7781 32.9097 53.6916 32.984L42.9735 42.216L39.7122 44.184C39.1269 44.5402 38.6712 45.0891 38.4163 45.7449C38.1614 46.4006 38.1217 47.1262 38.3035 47.808L37.538 48.264C37.1435 48.5007 36.8252 48.8544 36.6234 49.2804C36.4216 49.7064 36.3454 50.1854 36.4044 50.6567C36.4634 51.128 36.6551 51.5704 36.955 51.9278C37.255 52.2851 37.6497 52.5413 38.0892 52.664C38.284 52.7179 38.4848 52.7448 38.6863 52.744C39.0891 52.7422 39.4846 52.632 39.8347 52.424L40.6002 51.968C40.968 52.365 41.4305 52.6522 41.94 52.8C42.2016 52.8764 42.4722 52.9141 42.7439 52.912C43.282 52.9133 43.8106 52.7641 44.275 52.48L44.941 52.08L46.4722 54.856C46.7765 55.4057 47.2769 55.807 47.8638 55.972C48.4507 56.1369 49.0763 56.0521 49.6034 55.736C49.8649 55.5785 50.0942 55.3687 50.278 55.1186C50.4619 54.8685 50.5968 54.583 50.675 54.2784C50.7533 53.9737 50.7732 53.656 50.7339 53.3433C50.6945 53.0306 50.5965 52.7291 50.4455 52.456L49.0522 49.92L60.5358 45.416C60.6399 45.3751 60.7343 45.3109 60.8123 45.228C60.8903 45.1451 60.9501 45.0455 60.9875 44.936C61.0247 44.8278 61.0392 44.7124 61.03 44.5979C61.0207 44.4833 60.988 44.3721 60.9339 44.272L57.1213 37.36ZM39.0385 51.032C38.9513 51.0846 38.855 51.1188 38.7552 51.1325C38.6553 51.1463 38.5539 51.1393 38.4566 51.112C38.2605 51.0587 38.0926 50.9264 37.9896 50.744C37.9392 50.6529 37.9065 50.5523 37.8934 50.4479C37.8803 50.3436 37.8869 50.2376 37.9131 50.136C37.9392 50.0338 37.9845 49.9381 38.0462 49.8543C38.108 49.7706 38.185 49.7004 38.2729 49.648L38.939 49.248L39.7045 50.632L39.0385 51.032ZM49.1134 53.272C49.1638 53.3631 49.1965 53.4637 49.2097 53.568C49.2228 53.6723 49.2161 53.7783 49.19 53.88C49.1354 54.0833 49.006 54.2559 48.8302 54.36C48.6553 54.4649 48.4479 54.4936 48.2529 54.4396C48.058 54.3857 47.8912 54.2536 47.789 54.072L46.2578 51.296L47.5287 50.536H47.5899L49.1134 53.272Z" fill="#E9C46A"/>
<defs>
<filter id="filter0_d_173_71" x="0" y="0" width="105" height="105" filterUnits="userSpaceOnUse" color-interpolation-filters="sRGB">
<feFlood flood-opacity="0" result="BackgroundImageFix"/>
<feColorMatrix in="SourceAlpha" type="matrix" values="0 0 0 0 0 0 0 0 0 0 0 0 0 0 0 0 0 0 127 0" result="hardAlpha"/>
<feOffset dx="3" dy="6"/>
<feGaussianBlur stdDeviation="10"/>
<feColorMatrix type="matrix" values="0 0 0 0 0.913725 0 0 0 0 0.768627 0 0 0 0 0.415686 0 0 0 0.2 0"/>
<feBlend mode="normal" in2="BackgroundImageFix" result="effect1_dropShadow_173_71"/>
<feBlend mode="normal" in="SourceGraphic" in2="effect1_dropShadow_173_71" result="shape"/>
</filter>
</defs>
</svg>
