<svg width="108" height="108" viewBox="0 0 108 108" fill="none" xmlns="http://www.w3.org/2000/svg">
<g clip-path="url(#clip0_23_140)">
<path d="M61.4839 108H46.5169C42.8629 108 39.7534 105.502 38.9524 101.929L37.0534 93.501C33.9619 92.1915 31.0189 90.4815 28.2604 88.398L20.0614 90.9855C16.5424 92.07 12.7174 90.5805 10.9534 87.4395L3.49236 74.5335C1.70586 71.3385 2.30886 67.401 4.94136 64.926L11.2954 59.085C11.1019 57.375 11.0029 55.6695 11.0029 54C11.0029 52.3305 11.0974 50.625 11.2909 48.915L4.96836 43.101C2.30886 40.599 1.70136 36.666 3.46986 33.5115L10.9759 20.529C12.7219 17.424 16.5424 15.921 20.0524 17.0145L28.2604 19.602C31.0189 17.5185 33.9664 15.8085 37.0534 14.499L38.9524 6.066C39.7534 2.4975 42.8629 0 46.5169 0H61.4839C65.1379 0 68.2474 2.4975 69.0484 6.0705L70.9474 14.499C74.0389 15.8085 76.9818 17.5185 79.7403 19.602L87.9394 17.0145C91.4494 15.9165 95.2789 17.4195 97.0474 20.5605L104.508 33.4665C106.295 36.6615 105.692 40.599 103.059 43.074L96.7054 48.915C96.8989 50.625 96.9934 52.3305 96.9934 54C96.9934 55.6695 96.8989 57.375 96.7054 59.085L103.032 64.899C103.041 64.908 103.05 64.917 103.059 64.926C105.692 67.401 106.299 71.334 104.531 74.4885L97.0249 87.471C95.2744 90.576 91.4539 92.079 87.9484 90.9855L79.7359 88.3935C76.9774 90.477 74.0299 92.187 70.9429 93.4965L69.0439 101.929C68.2474 105.502 65.1379 108 61.4839 108ZM28.9534 81.2655C29.7274 81.2655 30.4879 81.531 31.1044 82.035C34.1869 84.5775 37.5619 86.535 41.1304 87.8535C42.2014 88.2495 43.0024 89.163 43.2544 90.279L45.5449 100.449C45.6484 100.912 46.0624 101.25 46.5259 101.25H61.4929C61.9564 101.25 62.3659 100.912 62.4739 100.453L64.7644 90.2835C65.0164 89.1675 65.8129 88.254 66.8884 87.858C70.4569 86.5395 73.8318 84.5775 76.9144 82.0395C77.7963 81.3105 78.9799 81.0765 80.0779 81.423L89.9824 84.5505C90.4504 84.6945 90.9544 84.5325 91.1749 84.132L98.6809 71.154C98.9059 70.7535 98.8249 70.2045 98.4604 69.8535L90.8643 62.8695C90.0364 62.109 89.6449 60.993 89.8159 59.8815C90.1129 57.9015 90.2659 55.9215 90.2659 54C90.2659 52.0785 90.1174 50.103 89.8159 48.1185C89.6494 47.007 90.0409 45.891 90.8643 45.1305L98.4784 38.1285C98.8204 37.8045 98.9104 37.251 98.6584 36.8055L91.1974 23.904C90.9544 23.4765 90.4684 23.31 89.9734 23.454L80.0824 26.577C78.9844 26.9235 77.8009 26.6895 76.9189 25.9605C73.8364 23.418 70.4614 21.4605 66.8929 20.142C65.8219 19.746 65.0209 18.8325 64.7689 17.7165L62.4784 7.5465C62.3569 7.0875 61.9474 6.75 61.4839 6.75H46.5169C46.0534 6.75 45.6439 7.0875 45.5359 7.5465L43.2454 17.721C42.9979 18.837 42.1969 19.746 41.1259 20.1465C37.5574 21.465 34.1824 23.4225 31.0999 25.965C30.2179 26.694 29.0344 26.9235 27.9364 26.5815L18.0319 23.454C17.5639 23.31 17.0599 23.4765 16.8394 23.8725L9.33336 36.846C9.10386 37.251 9.19386 37.8045 9.56286 38.1555L17.1544 45.1305C17.9824 45.891 18.3739 47.007 18.2029 48.1185C17.9059 50.0985 17.7529 52.0785 17.7529 54C17.7529 55.9215 17.9014 57.897 18.2029 59.8815C18.3694 60.993 17.9779 62.109 17.1544 62.8695L9.54036 69.8715C9.19836 70.1955 9.10836 70.749 9.36036 71.1945L16.8214 84.096C17.0689 84.528 17.5594 84.7035 18.0454 84.546L27.9364 81.423C28.2694 81.315 28.6114 81.2655 28.9534 81.2655Z" fill="#E76F51"/>
<path d="M50.6295 72C50.373 72 50.121 71.973 49.8645 71.9145C48.051 71.496 46.917 69.6825 47.3355 67.869L54.0855 38.619C54.504 36.7965 56.34 35.676 58.131 36.0855C59.9445 36.504 61.0785 38.3175 60.66 40.131L53.91 69.381C53.55 70.947 52.164 72 50.6295 72Z" fill="#E76F51"/>
<path d="M68.6253 67.5C67.7028 67.5 66.7848 67.1265 66.1143 66.384C64.8678 64.998 64.9803 62.865 66.3663 61.614L74.8308 54L66.3663 46.386C64.9803 45.1395 64.8678 43.0065 66.1143 41.616C67.3653 40.2345 69.4983 40.122 70.8843 41.364L82.1343 51.489C82.8453 52.1325 83.2503 53.046 83.2503 54C83.2503 54.954 82.8453 55.8675 82.1343 56.511L70.8843 66.636C70.2363 67.2165 69.4308 67.5 68.6253 67.5Z" fill="#E76F51"/>
<path d="M39.3751 67.5C38.5696 67.5 37.7641 67.2165 37.1161 66.636L25.8661 56.511C25.1551 55.8675 24.7501 54.954 24.7501 54C24.7501 53.046 25.1551 52.1325 25.8661 51.489L37.1161 41.364C38.5021 40.1175 40.6306 40.23 41.8861 41.616C43.1326 43.002 43.0201 45.135 41.6341 46.386L33.1696 54L41.6341 61.614C43.0201 62.8605 43.1326 64.9935 41.8861 66.384C41.2156 67.1265 40.2976 67.5 39.3751 67.5Z" fill="#E76F51"/>
</g>
<defs>
<clipPath id="clip0_23_140">
<rect width="108" height="108" fill="white"/>
</clipPath>
</defs>
</svg>
