<svg width="108" height="108" viewBox="0 0 108 108" fill="none" xmlns="http://www.w3.org/2000/svg">
<g clip-path="url(#clip0_23_163)">
<path d="M53.9998 0C31.2309 0 12.7054 18.5254 12.7054 41.2943V79.4114C12.7054 84.6667 16.9802 88.9415 22.2347 88.9415C27.49 88.9415 31.7648 84.6667 31.7648 79.4114V47.6472C31.7648 42.3927 27.49 38.1179 22.2347 38.1179C21.1652 38.1179 20.1534 38.3346 19.1918 38.6609C20.5472 20.6233 35.6243 6.35284 53.9998 6.35284C72.3653 6.35284 87.4383 20.6101 88.8061 38.6353C87.8503 38.3082 86.8327 38.1179 85.7648 38.1179C80.5095 38.1179 76.2347 42.3927 76.2347 47.6472V79.4114C76.2347 84.6667 80.5095 88.9415 85.7648 88.9415C86.8838 88.9415 87.9426 88.7124 88.9412 88.3564V92.1179C88.9412 93.8705 87.5141 95.2943 85.7648 95.2943H62.944C61.6281 91.6046 58.1353 88.9415 53.9998 88.9415C48.7453 88.9415 44.4705 93.2162 44.4705 98.4707C44.4705 103.725 48.7453 108 53.9998 108C58.1353 108 61.6281 105.336 62.944 101.647H85.7648C91.0193 101.647 95.2941 97.3724 95.2941 92.1179C95.2941 73.0116 95.2941 60.4212 95.2941 41.2943C95.2941 18.5254 76.7686 0 53.9998 0V0Z" fill="#F4A261"/>
<path d="M101.647 45.0557V82.0027C105.336 80.6876 108 77.1948 108 73.0584V53.9999C108 49.8644 105.336 46.3716 101.647 45.0557Z" fill="#F4A261"/>
<path d="M0 53.9999V73.0584C0 77.1948 2.66391 80.6876 6.35284 82.0027V45.0557C2.66391 46.3716 0 49.8644 0 53.9999Z" fill="#F4A261"/>
</g>
<defs>
<clipPath id="clip0_23_163">
<rect width="108" height="108" fill="white"/>
</clipPath>
</defs>
</svg>
